:SAMPLES-PER-SECOND 30
:FULLY-SPECIFIED
:DEGREES
132
root  -3.72098 40.1203 -20.0995 -1.07503 40.8201 4.48118
RightUpLeg  -10.4377 -13.9692 -7.42676
RightLeg  37.5073 -11.6244 -9.67549
RightFoot  -11.1958 -0.0766182 -1.5481
RightToes  0.00048216 0.542163 -0.142577
Spine  7.37138 3.31741 5.52401
Spine1  10.6582 5.58044 -6.50225
HEad  -0.474554 6.7778 -5.30738
LeftShoulder1  8.09153 -12.4885 -44.0473
LeftArm  -21.121 32.8595 -16.7083
LeftForeArm  123.021 -73.5479 -139.553
LeftHand  -0.25398 0.0180481 5.50724
RightShoulder  5.51027 9.72984 35.6649
RightArm  -7.38922 -20.1227 28.2115
RightForeArm  60.9542 77.2824 109.399
RightHand  0.248117 -16.9496 -3.57999
LeftUpLeg  5.01613 7.16045 -3.9534
LeftLeg  11.3644 17.6747 -1.34945
LeftFoot  -12.2766 0.0815724 1.02062
LeftToes  1.06243e-005 4.65856e-005 -8.18505e-006
133
root  -2.55862 40.0707 -19.4986 -1.82995 43.5864 3.87087
RightUpLeg  -14.3076 -16.2056 -3.88214
RightLeg  34.3626 -11.229 -8.39059
RightFoot  -8.79585 -0.0453267 -0.634058
RightToes  0.00048216 0.542163 -0.142577
Spine  9.31218 2.85698 4.84341
Spine1  10.1616 4.80458 -5.53735
HEad  -1.65316 5.46816 -4.47663
LeftShoulder1  8.1191 -12.5506 -44.0256
LeftArm  -21.3684 32.9377 -16.6618
LeftForeArm  123.245 -73.4717 -139.787
LeftHand  -0.25398 0.0180481 5.50724
RightShoulder  5.49671 9.70703 35.6346
RightArm  -7.58146 -21.101 28.4824
RightForeArm  64.244 77.0177 112.59
RightHand  0.274782 -16.5906 -3.93432
LeftUpLeg  8.07061 4.61111 -4.32251
LeftLeg  9.81204 17.7204 -1.66993
LeftFoot  -13.2367 0.0979183 1.07484
LeftToes  1.06243e-005 4.65856e-005 -8.18505e-006
134
root  -1.36338 39.8642 -18.8711 -1.66173 46.4675 4.54214
RightUpLeg  -17.3765 -18.3791 -1.50492
RightLeg  28.7026 -10.1935 -6.32158
RightFoot  -6.7489 -0.0382582 -0.132213
RightToes  0.00048216 0.542163 -0.142577
Spine  10.9636 2.47484 3.33218
Spine1  9.99467 4.03537 -4.55768
HEad  -2.96473 3.9092 -3.68517
LeftShoulder1  8.14641 -12.6012 -44.0355
LeftArm  -21.4197 32.4385 -16.6385
LeftForeArm  123.853 -73.303 -140.316
LeftHand  -0.25398 0.0180481 5.50724
RightShoulder  5.54585 9.73482 35.9124
RightArm  -8.3046 -21.7758 28.5613
RightForeArm  66.4808 76.7749 115.005
RightHand  0.293216 -16.3204 -4.19932
LeftUpLeg  10.7944 3.29042 -5.60816
LeftLeg  9.24065 16.7103 -1.50933
LeftFoot  -14.5807 0.151582 2.2116
LeftToes  1.06243e-005 4.65856e-005 -8.18505e-006
135
root  -0.0707805 39.5686 -18.2029 -0.973352 49.6743 5.24866
RightUpLeg  -19.7493 -20.5423 0.395764
RightLeg  20.5313 -8.49756 -3.34694
RightFoot  -3.97132 -0.0345397 0.0734841
RightToes  0.00048216 0.542163 -0.142577
Spine  11.5668 1.9038 2.53017
Spine1  10.2302 3.19088 -3.89985
HEad  -3.99981 2.20057 -3.08345
LeftShoulder1  8.19099 -12.6511 -44.1452
LeftArm  -20.9616 31.5466 -16.4106
LeftForeArm  124.309 -73.2034 -140.64
LeftHand  -0.25398 0.0180481 5.50724
RightShoulder  5.56746 9.69744 36.1881
RightArm  -9.22293 -22.1615 28.5683
RightForeArm  67.5891 76.5982 116.509
RightHand  0.303407 -16.3879 -4.2819
LeftUpLeg  13.0407 2.79926 -6.5148
LeftLeg  9.29121 14.627 -1.20303
LeftFoot  -16.3089 0.245803 3.4236
LeftToes  1.06243e-005 4.65856e-005 -8.18505e-006
136
root  1.367 39.2129 -17.4613 -0.380137 52.6075 5.18535
RightUpLeg  -20.7749 -17.1199 -0.0504405
RightLeg  10.8412 -11.891 0.980254
RightFoot  -1.10421 -0.160475 1.69139
RightToes  0.00048216 0.542163 -0.142577
Spine  10.9701 1.30793 3.09946
Spine1  10.768 2.56607 -3.76005
HEad  -4.38373 0.422692 -2.78516
LeftShoulder1  8.24935 -12.7107 -44.3039
LeftArm  -20.1556 30.6416 -16.2607
LeftForeArm  124.083 -73.3827 -140.154
LeftHand  -0.25398 0.0180481 5.50724
RightShoulder  5.52352 9.58767 36.2055
RightArm  -9.82465 -22.471 28.4432
RightForeArm  67.7502 76.5214 117.068
RightHand  0.31344 -16.3779 -4.38736
LeftUpLeg  14.8154 3.23356 -6.11204
LeftLeg  10.0336 11.3969 -1.21381
LeftFoot  -18.5762 0.310324 3.18693
LeftToes  1.06243e-005 4.65856e-005 -8.18505e-006
137
root  2.94613 38.79 -16.6169 -0.080103 55.1979 4.83735
RightUpLeg  -20.2464 -7.42225 -3.60563
RightLeg  1.50194 -21.0356 5.94425
RightFoot  -0.575208 -0.419257 4.46615
RightToes  0.00048216 0.542163 -0.142577
Spine  9.76415 0.787258 4.00087
Spine1  11.4906 2.02765 -3.61846
HEad  -4.10902 -1.25915 -2.72872
LeftShoulder1  8.31003 -12.8001 -44.3894
LeftArm  -19.4942 30.1757 -16.5423
LeftForeArm  123.196 -73.7964 -138.929
LeftHand  -0.25398 0.0180481 5.50724
RightShoulder  5.46301 9.5082 36.0034
RightArm  -9.81392 -22.6272 28.013
RightForeArm  67.0678 76.5108 116.998
RightHand  0.360904 -15.7716 -5.11819
LeftUpLeg  16.5732 4.44386 -4.85027
LeftLeg  11.6405 7.48327 -1.4202
LeftFoot  -20.8155 0.306591 2.17807
LeftToes  1.06243e-005 4.65856e-005 -8.18505e-006
138
root  4.63238 38.3688 -15.6991 -0.736748 57.3561 4.29831
RightUpLeg  -20.1013 -6.49126 -3.31806
RightLeg  -2.32568 -19.3713 7.00195
RightFoot  -1.72435 -0.52312 5.99261
RightToes  0.00048216 0.542163 -0.142577
Spine  9.08244 0.32639 4.99028
Spine1  12.3092 1.45632 -3.1682
HEad  -3.45836 -2.71471 -2.75071
LeftShoulder1  8.38113 -12.9191 -44.4477
LeftArm  -19.0691 30.4187 -16.9607
LeftForeArm  122.21 -74.1586 -137.761
LeftHand  -0.25398 0.0180481 5.50724
RightShoulder  5.39282 9.44331 35.6787
RightArm  -9.27703 -22.5769 27.3667
RightForeArm  66.6065 76.4454 117.345
RightHand  0.426403 -15.0074 -6.19933
LeftUpLeg  19.4208 5.84288 -3.35839
LeftLeg  13.1742 4.29586 -1.3167
LeftFoot  -21.8855 0.274755 1.55761
LeftToes  1.06243e-005 4.65856e-005 -8.18505e-006
139
root  6.46357 38.0163 -14.7521 -3.54613 57.3242 2.3498
RightUpLeg  -20.2295 -5.44731 -1.39962
RightLeg  1.31292 -15.8318 5.46273
RightFoot  -0.76974 -0.331574 3.69008
RightToes  0.00048216 0.542163 -0.142577
Spine  9.29696 0.359504 7.99746
Spine1  13.4254 1.85367 -3.60865
HEad  -2.63839 -3.92985 -2.79258
LeftShoulder1  8.45972 -13.0171 -44.6055
LeftArm  -18.4804 31.3903 -16.9484
LeftForeArm  121.225 -74.3681 -136.98
LeftHand  -0.25398 0.0180481 5.50724
RightShoulder  5.26771 9.27092 35.2694
RightArm  -8.42333 -22.6285 26.8024
RightForeArm  67.6369 76.2828 118.609
RightHand  0.439582 -15.1801 -6.27313
LeftUpLeg  23.972 7.65259 -1.21416
LeftLeg  13.7431 2.93724 -0.978578
LeftFoot  -21.6264 0.100748 -0.314
LeftToes  1.06243e-005 4.65856e-005 -8.18505e-006
